<svg xmlns='http://www.w3.org/2000/svg' style='background-color: #EFEFEF;'>
  <style>
    @import url('https://fonts.googleapis.com/css?family=Open+Sans:300,400,600,700,800');
    @import url('https://fonts.googleapis.com/css?family=Source+Code+Pro:300,400,500,700,900');
    text { font-family: 'Open Sans', sans-serif; font-weight: 600; font-size: 14px; }
    .title { font-weight: 800; font-size: 42px; }
    .code { font-weight: 600; font-family: 'Source Code Pro', monospace; }
  </style>
  <text x="100" y="100" class="title">Árbol rojinegro</text>
  <text x="100" y="130" class="code">Entrada recibida: [1, 2, 3, 4, 5, 6, 7, 8, 9, 10, 11, 12, 13, 14, 5]</text>
  <line x1="1084" x2="592" y1="200" y2="286" stroke="#000000" stroke-width="2px"/>
  <line x1="592" x2="346" y1="286" y2="372" stroke="#000000" stroke-width="2px"/>
  <g>
    <circle cx="346" cy="372" r="16" stroke-width="4px" stroke-opacity="1" fill="#011627" stroke="#424242"/>
    <text x="346" y="376" text-anchor="middle" class="code" fill="#fff">1</text>
  </g>
  <line x1="592" x2="838" y1="286" y2="372" stroke="#000000" stroke-width="2px"/>
  <g>
    <circle cx="838" cy="372" r="16" stroke-width="4px" stroke-opacity="1" fill="#011627" stroke="#424242"/>
    <text x="838" y="376" text-anchor="middle" class="code" fill="#fff">3</text>
  </g>
  <g>
    <circle cx="592" cy="286" r="16" stroke-width="4px" stroke-opacity="1" fill="#011627" stroke="#424242"/>
    <text x="592" y="290" text-anchor="middle" class="code" fill="#fff">2</text>
  </g>
  <line x1="1084" x2="1576" y1="200" y2="286" stroke="#000000" stroke-width="2px"/>
  <line x1="1576" x2="1330" y1="286" y2="372" stroke="#000000" stroke-width="2px"/>
  <line x1="1330" x2="1207" y1="372" y2="458" stroke="#000000" stroke-width="2px"/>
  <line x1="1207" x2="1146" y1="458" y2="544" stroke="#000000" stroke-width="2px"/>
  <g>
    <circle cx="1146" cy="544" r="16" stroke-width="4px" stroke-opacity="1" fill="#d36060" stroke="#424242"/>
    <text x="1146" y="548" text-anchor="middle" class="code" fill="#fff">5</text>
  </g>
  <g>
    <circle cx="1207" cy="458" r="16" stroke-width="4px" stroke-opacity="1" fill="#011627" stroke="#424242"/>
    <text x="1207" y="462" text-anchor="middle" class="code" fill="#fff">5</text>
  </g>
  <line x1="1330" x2="1453" y1="372" y2="458" stroke="#000000" stroke-width="2px"/>
  <g>
    <circle cx="1453" cy="458" r="16" stroke-width="4px" stroke-opacity="1" fill="#011627" stroke="#424242"/>
    <text x="1453" y="462" text-anchor="middle" class="code" fill="#fff">7</text>
  </g>
  <g>
    <circle cx="1330" cy="372" r="16" stroke-width="4px" stroke-opacity="1" fill="#011627" stroke="#424242"/>
    <text x="1330" y="376" text-anchor="middle" class="code" fill="#fff">6</text>
  </g>
  <line x1="1576" x2="1822" y1="286" y2="372" stroke="#000000" stroke-width="2px"/>
  <line x1="1822" x2="1699" y1="372" y2="458" stroke="#000000" stroke-width="2px"/>
  <g>
    <circle cx="1699" cy="458" r="16" stroke-width="4px" stroke-opacity="1" fill="#011627" stroke="#424242"/>
    <text x="1699" y="462" text-anchor="middle" class="code" fill="#fff">9</text>
  </g>
  <line x1="1822" x2="1945" y1="372" y2="458" stroke="#000000" stroke-width="2px"/>
  <line x1="1945" x2="1884" y1="458" y2="544" stroke="#000000" stroke-width="2px"/>
  <g>
    <circle cx="1884" cy="544" r="16" stroke-width="4px" stroke-opacity="1" fill="#011627" stroke="#424242"/>
    <text x="1884" y="548" text-anchor="middle" class="code" fill="#fff">11</text>
  </g>
  <line x1="1945" x2="2006" y1="458" y2="544" stroke="#000000" stroke-width="2px"/>
  <line x1="2006" x2="2036" y1="544" y2="630" stroke="#000000" stroke-width="2px"/>
  <g>
    <circle cx="2036" cy="630" r="16" stroke-width="4px" stroke-opacity="1" fill="#d36060" stroke="#424242"/>
    <text x="2036" y="634" text-anchor="middle" class="code" fill="#fff">14</text>
  </g>
  <g>
    <circle cx="2006" cy="544" r="16" stroke-width="4px" stroke-opacity="1" fill="#011627" stroke="#424242"/>
    <text x="2006" y="548" text-anchor="middle" class="code" fill="#fff">13</text>
  </g>
  <g>
    <circle cx="1945" cy="458" r="16" stroke-width="4px" stroke-opacity="1" fill="#d36060" stroke="#424242"/>
    <text x="1945" y="462" text-anchor="middle" class="code" fill="#fff">12</text>
  </g>
  <g>
    <circle cx="1822" cy="372" r="16" stroke-width="4px" stroke-opacity="1" fill="#011627" stroke="#424242"/>
    <text x="1822" y="376" text-anchor="middle" class="code" fill="#fff">10</text>
  </g>
  <g>
    <circle cx="1576" cy="286" r="16" stroke-width="4px" stroke-opacity="1" fill="#d36060" stroke="#424242"/>
    <text x="1576" y="290" text-anchor="middle" class="code" fill="#fff">8</text>
  </g>
  <g>
    <circle cx="1084" cy="200" r="16" stroke-width="4px" stroke-opacity="1" fill="#011627" stroke="#424242"/>
    <text x="1084" y="204" text-anchor="middle" class="code" fill="#fff">4</text>
  </g>
</svg>
